<svg xmlns="http://www.w3.org/2000/svg" viewBox="0 0 400 400" xml:space="preserve">
              <path style="fill: #df2e18" d="m68.824 192.73c11.86 0 22.179-6.619 27.483-16.373l26.045 5.575c4.248 12.271 15.871 21.083 29.555 21.083 17.278 0 31.284-14.045 31.284-31.369 0-1.245-0.081-2.47-0.221-3.677l35.908-26.067c5.299 4.134 11.954 6.603 19.188 6.603 17.278 0 31.285-14.044 31.285-31.368 0-3.146-0.467-6.181-1.326-9.045l38.673-28.074c4.791 2.99 10.444 4.722 16.503 4.722 17.278 0 31.284-14.045 31.284-31.369 0-17.325-14.006-31.369-31.284-31.369-17.277 0-31.284 14.044-31.284 31.369 0 2.59 0.319 5.105 0.91 7.513l-39.651 28.784c-4.479-2.482-9.629-3.899-15.109-3.899-17.277 0-31.283 14.044-31.283 31.369 0 1.404 0.102 2.785 0.279 4.14l-35.632 25.867c-5.352-4.293-12.136-6.867-19.523-6.867-12.414 0-23.139 7.25-28.193 17.757l-24.816-5.312c-3.742-13.122-15.785-22.731-30.073-22.731-17.278 0-31.284 14.045-31.284 31.369s14.004 31.369 31.282 31.369zm296.43 170.73h-12.821v-236.55h-62.569v236.55h-21.539v-168.67h-62.568v168.67h-22.566v-106.96h-62.568v106.96h-20.515v-129.59h-62.57v129.59h-11.796c-5.381 0-9.744 4.374-9.744 9.771s4.363 9.77 9.744 9.77h339.51c5.382 0 9.744-4.374 9.744-9.771s-4.362-9.77-9.744-9.77z" fill="#28A745"></path>
              <path style="fill: #008fa1" d="m323.2 22c-17.277 0-31.284 14.044-31.284 31.369 0 2.59 0.319 5.105 0.91 7.513l-39.651 28.784c-4.479-2.482-9.629-3.899-15.109-3.899-17.277 0-31.283 14.044-31.283 31.369 0 1.404 0.102 2.785 0.279 4.14l-35.632 25.867c-5.352-4.293-12.136-6.867-19.523-6.867-12.414 0-23.139 7.25-28.193 17.757l-24.816-5.312c-3.742-13.122-15.785-22.731-30.073-22.731-17.278 0-31.284 14.045-31.284 31.369s14.006 31.369 31.284 31.369c11.86 0 22.179-6.619 27.483-16.373l26.045 5.575c4.248 12.271 15.871 21.083 29.555 21.083 17.278 0 31.284-14.045 31.284-31.369 0-1.245-0.081-2.47-0.221-3.677l35.908-26.067c5.299 4.134 11.954 6.603 19.188 6.603 17.278 0 31.285-14.044 31.285-31.368 0-3.146-0.467-6.181-1.326-9.045l38.673-28.074c4.791 2.99 10.444 4.722 16.503 4.722 17.278 0 31.284-14.045 31.284-31.369-2e-3 -17.325-14.008-31.369-31.286-31.369z"></path>
       </svg>