<svg xmlns="http://www.w3.org/2000/svg" viewBox="0 0 800 800" xml:space="preserve">
<style type="text/css">
	.st0{enable-background:new    ;}
	.st1{fill:#A4E7E2;}
	.st2{fill:#34ACBF;}
	.st3{fill:#D6D6D6;}
	.st4{fill:none;stroke:#168E9D;stroke-miterlimit:10;}
	.st5{fill:#454C53;}
	.st6{fill:#168E9D;}
	.st7{fill:#64C21B;}
	.st8{fill:#A1A1A1;}
	.st9{fill:#FFA56F;}
	.st10{fill-rule:evenodd;clip-rule:evenodd;fill:#995503;}
	.st11{fill-rule:evenodd;clip-rule:evenodd;fill:#8B4801;}
	.st12{fill-rule:evenodd;clip-rule:evenodd;fill:#B2D8DE;}
	.st13{fill-rule:evenodd;clip-rule:evenodd;fill:#E0AC7E;}
	.st14{fill-rule:evenodd;clip-rule:evenodd;fill:#F2C196;}
	.st15{fill-rule:evenodd;clip-rule:evenodd;fill:#EBB688;}
	.st16{fill-rule:evenodd;clip-rule:evenodd;fill:#FF3705;}
	.st17{fill-rule:evenodd;clip-rule:evenodd;fill:#FF5527;}
	.st18{fill-rule:evenodd;clip-rule:evenodd;fill:#F0FAFC;}
	.st19{fill-rule:evenodd;clip-rule:evenodd;fill:#096385;}
	.st20{fill-rule:evenodd;clip-rule:evenodd;fill:#08426A;}
	.st21{fill-rule:evenodd;clip-rule:evenodd;fill:#0174A3;}
	.st22{fill-rule:evenodd;clip-rule:evenodd;fill:#0B5975;}
	.st23{fill-rule:evenodd;clip-rule:evenodd;fill:#0A6D94;}
</style>
































	
		
			<rect class="st1" x="122" y="127.9" width="259.7" height="379"></rect>
			<rect class="st2" x="122" y="171.9" width="259.7" height="55.7"></rect>
			<rect class="st2" x="122" y="239.6" width="259.7" height="55.7"></rect>
			<rect class="st2" x="122" y="307.3" width="259.7" height="55.7"></rect>
			<rect class="st2" x="122" y="375" width="259.7" height="55.7"></rect>
			<rect class="st2" x="122" y="442.7" width="259.7" height="55.7"></rect>
		
		<rect class="st2" x="188.4" y="43.1" width="126.9" height="35.5"></rect>
		<rect class="st3" x="165.5" y="65.3" width="172.8" height="441.6"></rect>
		<path class="st4" d="m143.6 368"></path>
		
			<rect class="st5" x="183.4" y="105.7" width="23.8" height="55.9"></rect>
			<rect class="st5" x="221.1" y="105.7" width="23.8" height="55.9"></rect>
			<rect class="st5" x="258.9" y="105.7" width="23.8" height="55.9"></rect>
			<rect class="st5" x="296.6" y="105.7" width="23.8" height="55.9"></rect>
		
		
			<rect class="st5" x="183.4" y="173.4" width="23.8" height="55.9"></rect>
			<rect class="st5" x="221.1" y="173.4" width="23.8" height="55.9"></rect>
			<rect class="st5" x="258.9" y="173.4" width="23.8" height="55.9"></rect>
			<rect class="st5" x="296.6" y="173.4" width="23.8" height="55.9"></rect>
		
		
			<rect class="st5" x="183.4" y="241.1" width="23.8" height="55.9"></rect>
			<rect class="st5" x="221.1" y="241.1" width="23.8" height="55.9"></rect>
			<rect class="st5" x="258.9" y="241.1" width="23.8" height="55.9"></rect>
			<rect class="st5" x="296.6" y="241.1" width="23.8" height="55.9"></rect>
		
		
			<rect class="st5" x="183.4" y="308.8" width="23.8" height="55.9"></rect>
			<rect class="st5" x="221.1" y="308.8" width="23.8" height="55.9"></rect>
			<rect class="st5" x="258.9" y="308.8" width="23.8" height="55.9"></rect>
			<rect class="st5" x="296.6" y="308.8" width="23.8" height="55.9"></rect>
		
		
			<rect class="st5" x="183.4" y="376.5" width="23.8" height="55.9"></rect>
			<rect class="st5" x="221.1" y="376.5" width="23.8" height="55.9"></rect>
			<rect class="st5" x="258.9" y="376.5" width="23.8" height="55.9"></rect>
			<rect class="st5" x="296.6" y="376.5" width="23.8" height="55.9"></rect>
		
		<rect class="st6" x="221.4" y="444.2" width="60.9" height="57.5"></rect>
	
	
		<path class="st7" d="m427.2 473.1c12.2 0 22.1-9.9 22.1-22.1s-9.9-22.1-22.1-22.1-22.1 9.9-22.1 22.1 9.9 22.1 22.1 22.1z"></path>
		
			<rect class="st8" transform="matrix(-1 -1.2246e-16 1.2246e-16 -1 854.41 984.25)" x="403.9" y="467.9" width="46.5" height="48.5"></rect>
	
	
		<path class="st7" d="m74.9 473.1c-12.2 0-22.1-9.9-22.1-22.1s9.9-22.1 22.1-22.1 22.1 9.9 22.1 22.1-9.9 22.1-22.1 22.1z"></path>
		<rect class="st8" x="51.6" y="467.9" width="46.5" height="48.5"></rect>
	
	
		<rect class="st9" x="28.5" y="523.2" width="446.8" height="29.3"></rect>
		<rect class="st5" x="28.5" y="498.3" width="446.8" height="36.1"></rect>
	


	
		<path class="st10" d="m625.1 329.4c1.5-19.4 8.1-39.8 3.3-57.8-11-25.7-63.1-37.9-88.2-33.3-15.7 26.3-9.2 58.8-6.3 88.9l91.2 2.2z"></path>
		<path class="st11" d="m579.2 328.3v-87.6c21.4 5 42.6 15.5 49.2 30.9 4.7 18-1.9 38.4-3.3 57.8l-45.9-1.1z"></path>
		<path class="st12" d="M578.4,511.6c13.8,0.2,27.4-0.4,40.9-1.8V386.5l-4.6-2c-10.1-4.4-22.6-9.5-36.3-11.4V511.6z"></path>
		<path class="st12" d="M578.4,511.6c-13.8,0.2-27.4-0.4-40.9-1.8V386.5l4.6-2c10.1-4.4,22.6-9.5,36.3-11.4V511.6z"></path>
		<path class="st13" d="M549.2,348.8h58.4V384c-19.5,15.5-38.9,16.1-58.4,0V348.8z"></path>
		<path class="st14" d="m554.4 276.5c-8.3-1.6-16.2 6.8-17.7 15.1-1.4 7.6-2.3 15.4-2.7 23.2-0.2 0 1-0.1-0.7-0.1s-7.1 1.2-6.8 8.5c0.2 5.4 4.9 21.2 11.1 18.6 9 24 21 37.6 40.8 42.4 0.3-0.6 0.5-0.1 0.8-0.4v-104.7c-8 0-15.9-0.8-24.8-2.6z"></path>
		<path class="st15" d="m603.2 276.5c8.3-1.6 16.2 6.8 17.7 15.1 1.4 7.6 2.3 15.4 2.7 23.2 0.2 0-1-0.1 0.7-0.1s7.1 1.2 6.8 8.5c-0.2 5.4-4.9 21.2-11.1 18.6-9.1 24.3-21.4 37.8-41.6 42.4v-105.1c8 0 15.9-0.8 24.8-2.6z"></path>
		<polygon class="st16" points="578.4 395.9 588.4 395.9 584.2 411.7 578.4 411.7 578.4 411.7 572.7 411.7 568.4 395.9"></polygon>
		<polygon class="st17" points="584.2 411.2 588.2 471.1 578.4 489.1 568.6 471.1 572.7 411.2"></polygon>
		<path class="st18" d="m578.4 395.9-17.1 16.6-19.2-28.1 7.1-3.9c7.2 7.6 17 12.5 29.2 15.4z"></path>
		<path class="st19" d="m578.4 487.5-42-100.5c-38 16.4-62.4 29-66.7 77.1 17.3 30.8 58.5 56 108.7 56v-32.6z"></path>
		<path class="st20" d="m504.1 499.1c1.5 1.1 3.3 1.9 4.9 2.9l-0.1-19.9-4.8 17z"></path>
		<polygon class="st21" points="578.4 487.5 578.4 512.9 538.8 442.1 550.6 427.8 532.7 421.8 524.6 392.1 544.2 383.6"></polygon>
		<path class="st18" d="m578.4 395.9 17.1 16.6 19.2-28.1-7.1-3.9c-7.2 7.6-17 12.5-29.2 15.4z"></path>
		<path class="st22" d="m578.4 487.5 42-100.5c38 16.4 62.4 29 66.7 77.1-17.3 30.8-58.5 56-108.7 56v-32.6z"></path>
		<path class="st20" d="m652.8 499.1c-1.5 1.1-3.3 1.9-4.8 2.9l0.1-19.9 4.7 17z"></path>
		<polygon class="st23" points="578.4 487.5 578.4 512.9 618 442.1 606.2 427.8 624.1 421.8 632.2 392.1 613.3 383.7"></polygon>
	
	
		<path class="st10" d="m476.2 624.7c0.9-12.4 5.2-25.5 2.1-37.1-7.1-16.5-40.5-24.3-56.5-21.4-10 16.9-5.9 37.7-4 57l58.4 1.5z"></path>
		<path class="st11" d="m446.8 623.9v-56.1c13.7 3.2 27.3 10 31.5 19.8 3 11.6-1.2 24.6-2.1 37.1l-29.4-0.8z"></path>
		<path class="st12" d="m446.3 741.5c8.9 0.1 17.6-0.3 26.2-1.2v-79.1l-2.9-1.3c-6.5-2.8-14.5-6.1-23.3-7.3v88.9z"></path>
		<path class="st12" d="m446.3 741.5c-8.9 0.1-17.6-0.3-26.2-1.2v-79.1l2.9-1.3c6.5-2.8 14.5-6.1 23.3-7.3v88.9z"></path>
		<path class="st13" d="M427.6,637.1H465v22.6c-12.5,9.9-25,10.3-37.4,0V637.1z"></path>
		<path class="st14" d="m430.9 590.7c-5.3-1-10.4 4.4-11.3 9.7-0.9 4.9-1.5 9.9-1.7 14.9h-0.4c-1.1 0-4.5 0.8-4.4 5.4 0.1 3.5 3.1 13.6 7.1 11.9 5.7 15.4 13.5 24.1 26.2 27.2 0.2-0.4 0.3-0.1 0.5-0.2v-67.2c-5.2 0-10.3-0.5-16-1.7z"></path>
		<path class="st15" d="m462.2 590.7c5.3-1 10.4 4.4 11.3 9.7 0.9 4.9 1.5 9.9 1.7 14.9h0.4c1.1 0 4.5 0.8 4.4 5.4-0.1 3.5-3.1 13.6-7.1 11.9-5.8 15.6-13.7 24.2-26.7 27.2v-67.5c5.2 0.1 10.3-0.4 16-1.6z"></path>
		<polygon class="st16" points="446.3 667.3 452.7 667.3 450 677.4 446.3 677.4 446.3 677.4 442.6 677.4 439.9 667.3"></polygon>
		<polygon class="st17" points="450 677.1 452.6 715.5 446.3 727.1 440 715.5 442.6 677.1"></polygon>
		<path class="st18" d="m446.3 667.3-11 10.7-12.3-18 4.6-2.5c4.6 4.8 10.9 7.9 18.7 9.8z"></path>
		<path class="st19" d="M446.3,726l-27-64.5c-24.4,10.5-40,18.6-42.7,49.5c11.1,19.7,37.5,35.9,69.7,35.9V726z"></path>
		<path class="st20" d="m398.6 733.5c1 0.7 2.1 1.2 3.1 1.9l-0.1-12.8-3 10.9z"></path>
		<polygon class="st21" points="446.3 726 446.3 742.3 420.9 696.9 428.5 687.7 417 683.9 411.8 664.9 424.3 659.4"></polygon>
		<path class="st18" d="m446.3 667.3 11 10.7 12.3-18-4.5-2.5c-4.7 4.8-11 7.9-18.8 9.8z"></path>
		<path class="st22" d="M446.3,726l27-64.5c24.4,10.5,40,18.6,42.7,49.5c-11.1,19.7-37.5,35.9-69.7,35.9V726z"></path>
		<path class="st20" d="m494 733.5c-1 0.7-2.1 1.2-3.1 1.9l0.1-12.8 3 10.9z"></path>
		<polygon class="st23" points="446.3 726 446.3 742.3 471.6 696.9 464.1 687.7 475.6 683.9 480.8 664.9 468.7 659.5"></polygon>
	
	
		<path class="st10" d="m740.3 624.7c1-12.4 5.2-25.5 2.1-37.1-7.1-16.5-40.5-24.3-56.6-21.4-10 16.9-5.9 37.7-4 57l58.5 1.5z"></path>
		<path class="st11" d="m710.9 623.9v-56.1c13.7 3.2 27.3 10 31.5 19.8 3 11.6-1.2 24.6-2.1 37.1l-29.4-0.8z"></path>
		<path class="st12" d="m710.4 741.5c8.9 0.1 17.6-0.3 26.2-1.2v-79.1l-2.9-1.3c-6.5-2.8-14.5-6.1-23.3-7.3v88.9z"></path>
		<path class="st12" d="m710.4 741.5c-8.9 0.1-17.6-0.3-26.2-1.2v-79.1l2.9-1.3c6.5-2.8 14.5-6.1 23.3-7.3v88.9z"></path>
		<path class="st13" d="m691.7 637.1h37.4v22.6c-12.5 9.9-24.9 10.3-37.4 0v-22.6z"></path>
		<path class="st14" d="m695 590.7c-5.3-1-10.4 4.4-11.3 9.7-0.9 4.9-1.5 9.9-1.7 14.9h-0.4c-1.1 0-4.5 0.8-4.4 5.4 0.1 3.5 3.1 13.6 7.1 11.9 5.8 15.4 13.5 24.1 26.2 27.2 0.2-0.4 0.3-0.1 0.5-0.2v-67.2c-5.2 0-10.3-0.5-16-1.7z"></path>
		<path class="st15" d="m726.3 590.7c5.3-1 10.4 4.4 11.3 9.7 0.9 4.9 1.5 9.9 1.7 14.9h0.4c1.1 0 4.5 0.8 4.4 5.4-0.1 3.5-3.1 13.6-7.1 11.9-5.8 15.6-13.7 24.2-26.7 27.2v-67.5c5.2 0.1 10.3-0.4 16-1.6z"></path>
		<polygon class="st16" points="710.4 667.3 716.8 667.3 714.1 677.4 710.4 677.4 710.4 677.4 706.7 677.4 704 667.3"></polygon>
		<polygon class="st17" points="714.1 677.1 716.7 715.5 710.4 727.1 704.1 715.5 706.7 677.1"></polygon>
		<path class="st18" d="m710.4 667.3-11 10.7-12.3-18 4.6-2.5c4.6 4.8 10.9 7.9 18.7 9.8z"></path>
		<path class="st19" d="M710.4,726l-27-64.5c-24.4,10.5-40,18.6-42.7,49.5c11.1,19.7,37.5,35.9,69.7,35.9V726z"></path>
		<path class="st20" d="m662.7 733.5c1 0.7 2.1 1.2 3.1 1.9l-0.1-12.8-3 10.9z"></path>
		<polygon class="st21" points="710.4 726 710.4 742.3 685 696.9 692.5 687.7 681.1 683.9 675.9 664.9 688.4 659.4"></polygon>
		<path class="st18" d="m710.4 667.3 11 10.7 12.3-18-4.6-2.5c-4.6 4.8-10.9 7.9-18.7 9.8z"></path>
		<path class="st22" d="M710.4,726l26.9-64.5c24.4,10.5,40,18.6,42.8,49.5c-11.1,19.7-37.5,35.9-69.7,35.9V726z"></path>
		<path class="st20" d="m758.1 733.5c-1 0.7-2.1 1.2-3.1 1.9l0.1-12.8 3 10.9z"></path>
		<polygon class="st23" points="710.4 726 710.4 742.3 735.7 696.9 728.2 687.7 739.7 683.9 744.9 664.9 732.8 659.5"></polygon>
	
	<polygon class="st16" points="519.5 659.9 508.5 640.9 570.1 605.3 570.1 534.2 592.1 534.2 592.1 605.3 653.7 640.9 642.7 659.9 581.1 624.4"></polygon>

</svg>