<svg xmlns="http://www.w3.org/2000/svg" viewBox="0 0 800 800" xml:space="preserve">
<svg id="task-management-image" viewBox="0 0 400 400">
              <path style="fill: #ffa200" d="m331.92 40.999h-265.85c-10.538 0-19.08 8.542-19.08 19.079v306.84c0 10.537 8.542 19.079 19.08 19.079h265.85c10.538 0 19.08-8.542 19.08-19.079v-306.84c0-10.537-8.542-19.079-19.08-19.079zm-14.31 311.61h-234.85v-275.84h234.85v275.84z"></path>
              <path style="fill: #28a745" d="m258 27h-27.051c-0.521-8.92-7.898-16-16.949-16h-29c-9.051 0-16.429 7.08-16.95 16h-28.05c-6.627 0-12 5.373-12 12v47h142v-47c0-6.627-5.373-12-12-12z"></path>
              <path style="fill: #03afe2" d="m242.77 182.2c-0.217-1.935-2.466-3.389-4.41-3.389-6.287 0-11.865-3.704-14.205-9.433-2.391-5.867-0.85-12.71 3.836-17.022 1.475-1.354 1.654-3.618 0.417-5.191-3.218-4.1-6.875-7.803-10.868-11.013-1.563-1.26-3.857-1.084-5.214 0.423-4.089 4.544-11.435 6.232-17.11 3.856-5.907-2.493-9.631-8.499-9.267-14.945 0.12-2.025-1.355-3.786-3.367-4.021-5.125-0.595-10.294-0.613-15.434-0.041-1.989 0.22-3.464 1.939-3.397 3.938 0.224 6.383-3.546 12.283-9.394 14.688-5.608 2.298-12.901 0.623-16.982-3.88-1.349-1.483-3.606-1.666-5.177-0.438-4.112 3.237-7.851 6.943-11.099 11.01-1.267 1.581-1.08 3.872 0.41 5.232 4.775 4.339 6.316 11.24 3.836 17.176-2.368 5.658-8.224 9.305-14.927 9.305-2.175-0.07-3.725 1.395-3.963 3.38-0.604 5.171-0.61 10.44-0.029 15.654 0.215 1.943 2.532 3.385 4.499 3.385 5.974-0.153 11.709 3.559 14.116 9.434 2.398 5.867 0.856 12.705-3.836 17.021-1.468 1.353-1.654 3.614-0.417 5.188 3.188 4.073 6.846 7.78 10.853 11.018 1.572 1.271 3.859 1.091 5.222-0.415 4.104-4.556 11.449-6.241 17.103-3.86 5.921 2.485 9.646 8.49 9.282 14.94-0.119 2.026 1.363 3.79 3.367 4.021 2.622 0.307 5.259 0.46 7.903 0.46 2.51 0 5.021-0.139 7.531-0.419 1.989-0.22 3.463-1.939 3.396-3.942-0.23-6.379 3.546-12.28 9.387-14.68 5.646-2.313 12.908-0.62 16.99 3.879 1.356 1.48 3.598 1.659 5.178 0.435 4.104-3.229 7.836-6.933 11.098-11.01 1.267-1.577 1.088-3.872-0.409-5.232-4.774-4.338-6.324-11.241-3.844-17.172 2.332-5.583 7.97-9.332 14.034-9.332l0.849 0.022c1.968 0.16 3.776-1.36 4.015-3.375 0.602-5.175 0.608-10.441 0.027-15.655zm-68.169 37.236c-16.261 0-29.489-13.278-29.489-29.602s13.228-29.603 29.489-29.603 29.489 13.279 29.489 29.603-13.228 29.602-29.489 29.602z"></path>
              <path style="fill: #df2e18" d="m291 267.12c-0.391-1.219-2.026-1.863-3.279-1.611-4.051 0.817-8.124-0.845-10.371-4.232-2.297-3.47-2.186-8.079 0.277-11.467 0.775-1.063 0.599-2.546-0.401-3.398-2.603-2.225-5.437-4.136-8.424-5.685-1.171-0.608-2.626-0.197-3.306 0.949-2.049 3.459-6.563 5.502-10.527 4.708-4.127-0.839-7.303-4.225-7.898-8.427-0.185-1.32-1.361-2.263-2.689-2.153-3.378 0.283-6.711 0.942-9.949 1.979-1.254 0.4-1.982 1.7-1.682 2.979 0.969 4.084-0.699 8.376-4.158 10.685-3.316 2.209-8.232 2.078-11.443-0.294-1.061-0.78-2.537-0.605-3.392 0.391-2.231 2.62-4.163 5.494-5.731 8.536-0.611 1.184-0.196 2.636 0.939 3.318 3.636 2.176 5.52 6.423 4.688 10.569-0.797 3.953-4.1 7.063-8.419 7.935-1.411 0.237-2.22 1.383-2.117 2.692 0.278 3.41 0.954 6.807 2.001 10.091 0.389 1.225 2.068 1.853 3.335 1.597 3.829-0.875 8.005 0.771 10.313 4.245 2.302 3.469 2.19 8.075-0.276 11.466-0.771 1.063-0.6 2.544 0.4 3.396 2.58 2.211 5.415 4.125 8.415 5.689 1.177 0.615 2.628 0.202 3.312-0.945 2.057-3.469 6.572-5.509 10.521-4.71 4.137 0.833 7.311 4.219 7.908 8.422 0.185 1.321 1.367 2.265 2.688 2.153 1.729-0.143 3.449-0.387 5.152-0.729 1.617-0.326 3.218-0.742 4.799-1.248 1.254-0.4 1.981-1.7 1.68-2.981-0.971-4.081 0.701-8.374 4.154-10.679 3.34-2.225 8.238-2.076 11.449 0.292 1.064 0.778 2.531 0.602 3.392-0.393 2.228-2.614 4.155-5.485 5.731-8.536 0.612-1.181 0.201-2.637-0.939-3.318-3.637-2.175-5.525-6.422-4.691-10.565 0.781-3.9 3.932-7.048 7.839-7.836l0.55-0.097c1.288-0.151 2.258-1.366 2.152-2.695-0.282-3.415-0.956-6.809-2.003-10.093zm-39.123 32.849c-10.478 2.112-20.714-4.726-22.82-15.243-2.105-10.519 4.705-20.793 15.184-22.905 10.478-2.112 20.714 4.726 22.82 15.243 2.105 10.518-4.706 20.792-15.184 22.905z"></path>
       </svg>

</svg>